<mxfile host="drawio-plugin" modified="2023-11-26T11:32:45.115Z" agent="5.0 (Macintosh; Intel Mac OS X 10_15_7) AppleWebKit/537.36 (KHTML, like Gecko) Chrome/111.0.0.0 Safari/537.36" etag="oHrNMnFLxdRw_IagsNEV" version="20.5.3" type="embed"><diagram name="library_clases" id="ZJh6HllbTSwfsBQ5d7UO"><mxGraphModel dx="599" dy="473" grid="1" gridSize="10" guides="1" tooltips="1" connect="1" arrows="1" fold="1" page="1" pageScale="1" pageWidth="850" pageHeight="1100" math="0" shadow="0"><root><mxCell id="0"/><mxCell id="1" parent="0"/><mxCell id="hDwmKNpLvLbVM5ufW6m2-5" value="Book" style="swimlane;fontStyle=1;align=center;verticalAlign=top;childLayout=stackLayout;horizontal=1;startSize=26;horizontalStack=0;resizeParent=1;resizeParentMax=0;resizeLast=0;collapsible=1;marginBottom=0;whiteSpace=wrap;html=1;" parent="1" vertex="1"><mxGeometry x="560" y="240" width="160" height="130" as="geometry"/></mxCell><mxCell id="hDwmKNpLvLbVM5ufW6m2-6" value="&amp;nbsp; title: str" style="text;strokeColor=none;fillColor=none;align=left;verticalAlign=top;spacingLeft=4;spacingRight=4;overflow=hidden;rotatable=0;points=[[0,0.5],[1,0.5]];portConstraint=eastwest;whiteSpace=wrap;html=1;" parent="hDwmKNpLvLbVM5ufW6m2-5" vertex="1"><mxGeometry y="26" width="160" height="26" as="geometry"/></mxCell><mxCell id="zS_RuTSZrDyANP0keYlt-1" value="&amp;nbsp; price: decimal" style="text;strokeColor=none;fillColor=none;align=left;verticalAlign=top;spacingLeft=4;spacingRight=4;overflow=hidden;rotatable=0;points=[[0,0.5],[1,0.5]];portConstraint=eastwest;whiteSpace=wrap;html=1;" parent="hDwmKNpLvLbVM5ufW6m2-5" vertex="1"><mxGeometry y="52" width="160" height="26" as="geometry"/></mxCell><mxCell id="zS_RuTSZrDyANP0keYlt-2" value="&amp;nbsp; format: LiteraryFormat" style="text;strokeColor=none;fillColor=none;align=left;verticalAlign=top;spacingLeft=4;spacingRight=4;overflow=hidden;rotatable=0;points=[[0,0.5],[1,0.5]];portConstraint=eastwest;whiteSpace=wrap;html=1;" parent="hDwmKNpLvLbVM5ufW6m2-5" vertex="1"><mxGeometry y="78" width="160" height="26" as="geometry"/></mxCell><mxCell id="zS_RuTSZrDyANP0keYlt-3" value="&amp;nbsp; authors: List[Author]" style="text;strokeColor=none;fillColor=none;align=left;verticalAlign=top;spacingLeft=4;spacingRight=4;overflow=hidden;rotatable=0;points=[[0,0.5],[1,0.5]];portConstraint=eastwest;whiteSpace=wrap;html=1;" parent="hDwmKNpLvLbVM5ufW6m2-5" vertex="1"><mxGeometry y="104" width="160" height="26" as="geometry"/></mxCell><mxCell id="zS_RuTSZrDyANP0keYlt-4" value="LiteraryFormat" style="swimlane;fontStyle=1;align=center;verticalAlign=top;childLayout=stackLayout;horizontal=1;startSize=26;horizontalStack=0;resizeParent=1;resizeParentMax=0;resizeLast=0;collapsible=1;marginBottom=0;whiteSpace=wrap;html=1;" parent="1" vertex="1"><mxGeometry x="220" y="241" width="160" height="52" as="geometry"/></mxCell><mxCell id="zS_RuTSZrDyANP0keYlt-5" value="&amp;nbsp; format: str" style="text;strokeColor=none;fillColor=none;align=left;verticalAlign=top;spacingLeft=4;spacingRight=4;overflow=hidden;rotatable=0;points=[[0,0.5],[1,0.5]];portConstraint=eastwest;whiteSpace=wrap;html=1;" parent="zS_RuTSZrDyANP0keYlt-4" vertex="1"><mxGeometry y="26" width="160" height="26" as="geometry"/></mxCell><mxCell id="zS_RuTSZrDyANP0keYlt-9" value="1" style="endArrow=open;html=1;endSize=12;startArrow=diamondThin;startSize=14;startFill=0;edgeStyle=orthogonalEdgeStyle;align=left;verticalAlign=bottom;rounded=0;exitX=0;exitY=0.5;exitDx=0;exitDy=0;entryX=1;entryY=0.25;entryDx=0;entryDy=0;" parent="1" source="zS_RuTSZrDyANP0keYlt-2" target="zS_RuTSZrDyANP0keYlt-4" edge="1"><mxGeometry x="-1" y="3" relative="1" as="geometry"><mxPoint x="250" y="430" as="sourcePoint"/><mxPoint x="410" y="430" as="targetPoint"/></mxGeometry></mxCell><mxCell id="zS_RuTSZrDyANP0keYlt-10" value="Author" style="swimlane;fontStyle=1;align=center;verticalAlign=top;childLayout=stackLayout;horizontal=1;startSize=26;horizontalStack=0;resizeParent=1;resizeParentMax=0;resizeLast=0;collapsible=1;marginBottom=0;whiteSpace=wrap;html=1;" parent="1" vertex="1"><mxGeometry x="220" y="343" width="160" height="78" as="geometry"/></mxCell><mxCell id="zS_RuTSZrDyANP0keYlt-11" value="&amp;nbsp; name: str" style="text;strokeColor=none;fillColor=none;align=left;verticalAlign=top;spacingLeft=4;spacingRight=4;overflow=hidden;rotatable=0;points=[[0,0.5],[1,0.5]];portConstraint=eastwest;whiteSpace=wrap;html=1;" parent="zS_RuTSZrDyANP0keYlt-10" vertex="1"><mxGeometry y="26" width="160" height="26" as="geometry"/></mxCell><mxCell id="zS_RuTSZrDyANP0keYlt-12" value="&amp;nbsp; last_name: str" style="text;strokeColor=none;fillColor=none;align=left;verticalAlign=top;spacingLeft=4;spacingRight=4;overflow=hidden;rotatable=0;points=[[0,0.5],[1,0.5]];portConstraint=eastwest;whiteSpace=wrap;html=1;" parent="zS_RuTSZrDyANP0keYlt-10" vertex="1"><mxGeometry y="52" width="160" height="26" as="geometry"/></mxCell><mxCell id="zS_RuTSZrDyANP0keYlt-13" value="1" style="endArrow=open;html=1;endSize=12;startArrow=diamondThin;startSize=14;startFill=0;edgeStyle=orthogonalEdgeStyle;align=left;verticalAlign=bottom;rounded=0;exitX=0;exitY=0.5;exitDx=0;exitDy=0;entryX=1.009;entryY=0.171;entryDx=0;entryDy=0;entryPerimeter=0;" parent="1" source="zS_RuTSZrDyANP0keYlt-3" target="zS_RuTSZrDyANP0keYlt-10" edge="1"><mxGeometry x="-1" y="3" relative="1" as="geometry"><mxPoint x="390" y="500" as="sourcePoint"/><mxPoint x="550" y="500" as="targetPoint"/></mxGeometry></mxCell><UserObject label="n" placeholders="1" id="zS_RuTSZrDyANP0keYlt-15"><mxCell style="text;html=1;strokeColor=none;fillColor=none;align=center;verticalAlign=middle;whiteSpace=wrap;overflow=hidden;" parent="1" vertex="1"><mxGeometry x="380" y="230" width="20" height="20" as="geometry"/></mxCell></UserObject><UserObject label="0...n" placeholders="1" id="zS_RuTSZrDyANP0keYlt-16"><mxCell style="text;html=1;strokeColor=none;fillColor=none;align=center;verticalAlign=middle;whiteSpace=wrap;overflow=hidden;" parent="1" vertex="1"><mxGeometry x="380" y="330" width="30" height="20" as="geometry"/></mxCell></UserObject></root></mxGraphModel></diagram></mxfile>